<svg width="500" height="500" viewBox="0 0 500 500" fill="none" xmlns="http://www.w3.org/2000/svg">
<path d="M500 250C500 388.071 388.071 500 250 500C111.929 500 0 388.071 0 250C0 111.929 111.929 0 250 0C388.071 0 500 111.929 500 250Z" fill="#6366F1" fill-opacity="0.2"/>
<path d="M184.597 223.05L119.597 245.8L184.597 268.55V310.8L87.0973 266.925V224.675L184.597 180.8V223.05ZM257.24 123.925H299.49L244.24 367.675H201.99L257.24 123.925ZM414.382 224.675V266.925L316.882 310.8V268.55L381.882 245.8L316.882 223.05V180.8L414.382 224.675Z" fill="#F5F0E1"/>
</svg>
