<svg width="500" height="500" viewBox="0 0 500 500" fill="none" xmlns="http://www.w3.org/2000/svg">
<path d="M500 250C500 388.071 388.071 500 250 500C111.929 500 0 388.071 0 250C0 111.929 111.929 0 250 0C388.071 0 500 111.929 500 250Z" fill="#6366F1" fill-opacity="0.2"/>
<path d="M110.803 228.5L60.8027 246L110.803 263.5V296L35.8027 262.25V229.75L110.803 196V228.5ZM177.932 152.25C183.765 152.25 188.765 154.333 192.932 158.5C197.098 162.667 199.182 167.667 199.182 173.5V221H166.682V178.5H124.182V173.5C124.182 167.667 126.265 162.667 130.432 158.5C134.598 154.333 139.598 152.25 145.432 152.25H177.932ZM124.182 185.75H156.682V313.5H166.682V272.25H161.682V246H199.182V318.5C199.182 324.333 197.098 329.333 192.932 333.5C188.765 337.667 183.765 339.75 177.932 339.75H145.432C139.598 339.75 134.598 337.667 130.432 333.5C126.265 329.333 124.182 324.333 124.182 318.5V185.75ZM255.061 152.25H287.561L245.061 339.75H212.561L255.061 152.25ZM375.939 224.75C375.939 230.583 373.856 235.583 369.689 239.75C365.523 243.917 360.523 246 354.689 246C360.523 246 365.523 248.083 369.689 252.25C373.856 256.417 375.939 261.417 375.939 267.25V339.75H343.439V259.25H333.439V339.75H300.939V185.75H333.439V233H343.439V178.5H300.939V152.25H354.689C360.523 152.25 365.523 154.333 369.689 158.5C373.856 162.667 375.939 167.667 375.939 173.5V224.75ZM464.318 229.75V262.25L389.318 296V263.5L439.318 246L389.318 228.5V196L464.318 229.75Z" fill="#F5F0E1"/>
</svg>
